<?xml version="1.0" encoding="utf-8"?>
<!-- Generator: Adobe Illustrator 24.1.2, SVG Export Plug-In . SVG Version: 6.00 Build 0)  -->
<svg version="1.1" id="Layer_1" xmlns="http://www.w3.org/2000/svg" xmlns:xlink="http://www.w3.org/1999/xlink" x="0px" y="0px"
	 viewBox="0 0 425.2 425.2" style="enable-background:new 0 0 425.2 425.2;" xml:space="preserve">
<style type="text/css">
	.st0{fill:#FFFFFF;}
</style>
<g>
	<g>
		<g>
			<path class="st0" d="M92.15,207.61l0.97,9.21c1.19,11.24-4.07,19.73-17.93,21.19l-0.17,0.02c-13.35,1.4-20.47-5.36-22.33-15.76
				l-0.01-0.08l-18.59,1.96l-1.09-10.31L92.15,207.61z M62.24,221.26c0.71,4.28,4.18,7.25,11.36,6.49l0.17-0.02
				c7.52-0.79,10.43-4,9.96-8.48l-0.03-0.34l-21.46,2.26L62.24,221.26z"/>
			<path class="st0" d="M64.39,244.09l2.91-0.94c18.69-6,29.62-2.81,32.5,6.17c2.88,8.98-4.15,17.93-22.84,23.93l-2.91,0.94
				c-18.69,6-29.62,2.81-32.5-6.17C38.67,259.03,45.7,250.09,64.39,244.09z M70.83,264.15l2.91-0.94c14.56-4.67,17.96-7.99,17-10.99
				c-0.96-2.99-5.65-3.72-20.22,0.96l-2.91,0.94c-14.56,4.68-17.96,7.99-17,10.99C51.57,268.1,56.27,268.83,70.83,264.15z"/>
			<path class="st0" d="M103.99,264.27l4.87,7.88c5.93,9.62,4.88,19.55-6.98,26.87l-0.14,0.09c-11.42,7.05-20.77,4.04-26.96-4.53
				l-0.04-0.07l-15.91,9.82l-5.44-8.82L103.99,264.27z M82.95,289.54c2.49,3.55,6.91,4.72,13.05,0.93l0.15-0.09
				c6.43-3.97,7.66-8.12,5.3-11.96l-0.18-0.29L82.9,289.47L82.95,289.54z"/>
			<path class="st0" d="M78.92,303.96l10.65,13.93l-6.48,4.95l-10.65-13.93L78.92,303.96z"/>
			<path class="st0" d="M91.47,320.78l28.79-30.76l7.5,7.02l-29.49,31.51c-3.66,3.91-3.75,6.74-1.82,8.53
				c1.92,1.8,4.74,1.53,8.4-2.38l29.49-31.51l7.5,7.02l-28.79,30.76c-8.53,9.12-16.95,8.92-23.16,3.11S82.93,329.9,91.47,320.78z"/>
			<path class="st0" d="M146.23,311.51l7.71,5.13c9.41,6.26,12.6,15.73,4.88,27.33l-0.09,0.14c-7.43,11.18-17.19,12.34-26.38,7.15
				l-0.07-0.05l-10.35,15.56l-8.63-5.74L146.23,311.51z M137.66,343.26c3.75,2.19,8.25,1.4,12.25-4.61l0.09-0.14
				c4.19-6.3,3.57-10.58-0.18-13.08l-0.28-0.19l-11.95,17.97L137.66,343.26z"/>
			<path class="st0" d="M181.74,329l9.16,1.34c11.18,1.63,18.12,8.83,16.1,22.62l-0.03,0.17c-1.94,13.28-10.27,18.51-20.8,17.74
				l-0.08-0.01l-2.71,18.5l-10.26-1.5L181.74,329z M187.57,361.37c4.33,0.37,8.06-2.26,9.11-9.4l0.02-0.17
				c1.09-7.48-1.3-11.1-5.75-11.75l-0.34-0.05l-3.12,21.36L187.57,361.37z"/>
			<path class="st0" d="M213.01,332.16l11.03-0.56l14.31,58.99l-10.35,0.52l-2.55-11.69l-9.42,0.48l-1.27,11.89l-10.01,0.51
				L213.01,332.16z M223.44,370.16l-4.13-19.44l-2.23,19.76L223.44,370.16z"/>
			<path class="st0" d="M230.91,331.18l10.08-2.42l11.6,48.24l10.65-2.56l2.3,9.58L244.81,389L230.91,331.18z"/>
			<path class="st0" d="M248.95,326.92l9.57-3.97l18.99,45.83l10.12-4.19l3.77,9.1l-19.7,8.16L248.95,326.92z"/>
			<path class="st0" d="M272.62,315.79l9.25-6.04l42.09,43.76l-8.68,5.67l-8.1-8.82l-7.9,5.16l4.89,10.91l-8.39,5.48L272.62,315.79z
				 M300.79,343.37l-13.37-14.71l8.03,18.2L300.79,343.37z"/>
			<path class="st0" d="M287.33,306.79l6.76-6.94c9.25-9.49,21.4-8.21,35.09,5.12l1.46,1.42c13.7,13.34,15.3,25.45,6.05,34.95
				l-6.76,6.94L287.33,306.79z M330.65,333.91c3.44-3.53,3.3-9.6-7.35-19.97l-1.46-1.42c-10.65-10.37-16.72-10.35-20.16-6.82
				l-0.3,0.3l28.97,28.22L330.65,333.91z"/>
			<path class="st0" d="M307.71,284.63l5.86-8.55l49.06,33.62l-5.86,8.55L307.71,284.63z"/>
			<path class="st0" d="M355.73,288.37l-38.94-16.11l3.93-9.5l39.89,16.5c4.95,2.05,7.62,1.13,8.63-1.3
				c1.01-2.43-0.24-4.97-5.19-7.02l-39.89-16.5l3.93-9.5l38.94,16.11c11.54,4.77,14.32,12.73,11.07,20.58
				S367.27,293.15,355.73,288.37z"/>
			<path class="st0" d="M328.58,241.59l1.36-10.19l22.53-4.37l-20.6-10.11l1.36-10.19l58.96,7.85l-1.31,9.86l-35.63-4.74
				l21.32,10.47l-0.02,0.17l-23.32,4.53l35.63,4.74l-1.31,9.86L328.58,241.59z"/>
		</g>
	</g>
	<g>
		<g>
			<path class="st0" d="M84.79,85.11l7.02-6.04c8.57-7.37,18.54-7.88,27.63,2.68l0.11,0.13c8.75,10.18,7.24,19.89-0.25,27.33
				l-0.06,0.06l12.19,14.17l-7.86,6.76L84.79,85.11z M113.04,101.94c3.12-3.02,3.58-7.56-1.13-13.04l-0.11-0.13
				c-4.93-5.73-9.23-6.3-12.64-3.36l-0.26,0.22l14.07,16.36L113.04,101.94z"/>
			<path class="st0" d="M133.69,98.66l-20.06-37.06l9.04-4.89l20.54,37.96c2.55,4.71,5.2,5.68,7.52,4.43
				c2.31-1.25,2.95-4.01,0.4-8.72L130.6,52.42l9.04-4.89l20.06,37.06c5.94,10.98,3.08,18.91-4.39,22.95
				C147.84,111.58,139.64,109.64,133.69,98.66z"/>
			<path class="st0" d="M149.83,44.44l8.73-3.1c10.65-3.78,20.14-0.66,24.81,12.47l0.06,0.16c4.49,12.65-0.42,21.16-10.09,25.4
				l-0.08,0.03l6.25,17.61l-9.77,3.47L149.83,44.44z M170.11,70.33c4-1.69,6.07-5.76,3.65-12.57l-0.06-0.16
				c-2.53-7.13-6.33-9.2-10.58-7.7l-0.32,0.11l7.22,20.34L170.11,70.33z"/>
			<path class="st0" d="M185.8,34.98l9.2-1.1c11.22-1.34,19.79,3.8,21.44,17.64l0.02,0.17c1.59,13.33-5.08,20.54-15.45,22.55
				l-0.08,0.01l2.21,18.56l-10.3,1.23L185.8,34.98z M199.87,64.71c4.27-0.77,7.19-4.28,6.34-11.45l-0.02-0.17
				c-0.9-7.51-4.15-10.37-8.62-9.84l-0.34,0.04l2.55,21.43L199.87,64.71z"/>
			<path class="st0" d="M223.66,32.9l22.6,2.78l-1.2,9.78l-12.31-1.52l-1.81,14.67l10.88,1.34l-1.2,9.78l-10.88-1.34l-1.85,15.01
				l12.57,1.55l-1.21,9.78l-22.85-2.81L223.66,32.9z"/>
			<path class="st0" d="M258.45,48.98l-6.97-2.19l2.95-9.4l23.84,7.47l-2.95,9.41l-6.97-2.19L253.5,99.44l-9.89-3.1L258.45,48.98z"
				/>
			<path class="st0" d="M287.65,48.76l9.36,5.19c9.29,5.15,13.33,13.81,6.85,25.47l-0.37,0.67c-3.75,6.76-8.82,9.58-13.68,10.29
				l-4.72,24.97l-9.66-5.36l4.19-21.38c-0.07-0.04-0.15-0.08-0.15-0.08l-1.56-0.87l-10.06,18.13l-9.06-5.03L287.65,48.76z
				 M282.9,79.74c3.94,2.19,8.11,1.49,11.49-4.6l0.33-0.59c3.63-6.54,1.46-9.98-2.48-12.16l-0.22-0.12l-9.57,17.23L282.9,79.74z"/>
			<path class="st0" d="M302.85,100.7l15.23-34.46l8.09,7.01l-10.33,20.5l18.88-13.1l7.9,6.84l-31.93,20l-15.35,17.73l-7.84-6.79
				L302.85,100.7z"/>
		</g>
	</g>
	<g>
		<g>
			<g>
				<path class="st0" d="M331.25,166.81v-16.83h-1.55v-4.64h1.55v-6.62h5.71v6.62H340v4.64h-3.05v14.89c0,1.16,0.58,1.59,1.59,1.59
					c0.44,0,0.92-0.1,1.4-0.29v4.54c-0.87,0.48-2.22,0.87-3.38,0.87C333.86,171.6,331.25,170.73,331.25,166.81z"/>
				<path class="st0" d="M342.37,137.17h5.71v11.27c1.02-1.98,2.32-3.58,4.59-3.58c3.29,0,4.98,2.81,4.98,6.77v19.63h-5.71v-18.32
					c0-1.89-0.73-2.95-1.89-2.95s-1.98,1.06-1.98,2.95v18.32h-5.71V137.17z"/>
				<path class="st0" d="M360.07,158.98v-1.26c0-8.32,3.58-12.77,7.88-12.77c4.5,0,7.35,4.5,7.35,13.01v3h-9.52
					c0.34,4.06,2.03,5.46,3.92,5.46c1.74,0,2.85-0.72,4.55-1.89l0.44,5.22c-1.98,1.31-3.53,1.98-5.71,1.98
					C364.13,171.75,360.07,167.34,360.07,158.98z M369.93,156.47c0-4.35-0.63-6.43-1.98-6.43c-1.31,0-2.13,1.84-2.22,6.43H369.93z"
					/>
			</g>
		</g>
		<g>
			<g>
				<path class="st0" d="M59.66,164.06v-0.82c0-5.8,2.32-8.22,5.75-8.22c1.21,0,2.32,0.34,3.43,0.97v-1.55
					c0-2.66-1.31-4.06-3.63-4.06c-1.45,0-2.9,0.58-4.3,1.21v-5.42c1.74-0.77,3.19-1.11,5.41-1.11c5.27,0,8.17,3.09,8.17,8.99v17.21
					H68.8v-2.76c-1.02,2.13-2.37,3.19-4.21,3.19C61.74,171.7,59.66,168.8,59.66,164.06z M68.85,164.44V160
					c-0.44-0.24-1.31-0.53-1.79-0.53c-1.16,0-1.94,0.97-1.94,3.43v0.68c0,2.56,0.77,3.34,1.79,3.34
					C67.88,166.91,68.85,166.09,68.85,164.44z"/>
				<path class="st0" d="M78.18,166.81v-16.83h-1.55v-4.64h1.55v-6.62h5.71v6.62h3.05v4.64h-3.05v14.89c0,1.16,0.58,1.59,1.59,1.59
					c0.44,0,0.92-0.1,1.4-0.29v4.54c-0.87,0.48-2.22,0.87-3.38,0.87C80.79,171.6,78.18,170.73,78.18,166.81z"/>
			</g>
		</g>
	</g>
	<g>
		<g>
			<path class="st0" d="M236.32,213.39l-7.52,3.5l15.72,33.72c1.5,3.23,1.66,6.84,0.44,10.19c-1.22,3.34-3.66,6.01-6.89,7.52
				c-6.66,3.11-14.6,0.22-17.71-6.44l-15.72-33.72l-7.52,3.5l15.72,33.72c2.44,5.23,6.77,9.21,12.2,11.18
				c2.41,0.88,4.91,1.31,7.41,1.31c3.11,0,6.22-0.68,9.12-2.04c10.8-5.04,15.5-17.93,10.46-28.73L236.32,213.39z"/>
			<path class="st0" d="M195.38,232.48l-33.55,5.92c-11.74,2.07-19.61,13.31-17.54,25.05c1.85,10.46,10.97,17.85,21.33,17.85
				c1.26,0,2.55-0.11,3.84-0.34l35.9-7.44l20.17,43.25l7.52-3.5l-19.91-42.71L195.38,232.48z M167.89,272.81
				c-7.24,1.29-14.16-3.57-15.44-10.81c-1.28-7.24,3.57-14.16,10.81-15.44l27.28-4.81l11.21,24.03L167.89,272.81z"/>
		</g>
		<g>
			<path class="st0" d="M294.63,193.33c-7.66-9.13-21.33-10.33-30.46-2.67l-26.1,21.9l18.33,39.31l0,0l19.34,41.47l7.52-3.5
				l-20.17-43.25l28.88-22.8c4.42-3.71,7.14-8.93,7.64-14.68C300.11,203.36,298.35,197.75,294.63,193.33z M286.73,217.36
				l-27.24,21.51l-11.21-24.03l21.23-17.81c5.63-4.72,14.05-3.98,18.77,1.64c2.29,2.73,3.38,6.18,3.07,9.73
				C291.03,211.93,289.36,215.15,286.73,217.36z"/>
			<path class="st0" d="M213.33,158.49c-8.51-3.1-17.72-2.7-25.93,1.13c-16.95,7.9-24.31,28.12-16.41,45.07
				c5.75,12.33,18.01,19.58,30.79,19.58c4.79,0,9.66-1.02,14.28-3.18c16.95-7.9,24.31-28.13,16.41-45.07
				C228.64,167.81,221.84,161.59,213.33,158.49z M212.56,213.58c-6.2,2.89-13.16,3.2-19.59,0.86c-6.43-2.34-11.56-7.05-14.46-13.25
				c-2.89-6.2-3.2-13.16-0.86-19.59c2.34-6.43,7.05-11.56,13.25-14.46c3.44-1.61,7.12-2.41,10.81-2.41c2.95,0,5.92,0.52,8.78,1.56
				c6.43,2.34,11.57,7.05,14.46,13.25C230.92,192.34,225.36,207.61,212.56,213.58z"/>
		</g>
		<g>
			<path class="st0" d="M212.43,320.77c-12.4,0-24.84-2.17-36.84-6.54c-26.99-9.82-48.54-29.57-60.69-55.61
				c-12.14-26.03-13.42-55.24-3.59-82.23c9.82-26.99,29.57-48.54,55.61-60.68c26.03-12.14,55.24-13.42,82.23-3.59
				c26.99,9.82,48.54,29.57,60.68,55.61l0,0c12.14,26.03,13.42,55.24,3.59,82.23c-9.82,26.99-29.57,48.54-55.61,60.69
				C243.36,317.38,227.92,320.77,212.43,320.77z M212.31,113.87c-14.3,0-28.54,3.13-41.89,9.35c-24.03,11.2-42.25,31.09-51.32,56
				s-7.89,51.86,3.31,75.89c11.2,24.03,31.09,42.25,56,51.32s51.86,7.89,75.89-3.31c24.03-11.2,42.25-31.09,51.32-56
				c9.07-24.91,7.89-51.86-3.31-75.89l0,0c-11.2-24.03-31.09-42.25-56-51.32C235.23,115.88,223.75,113.87,212.31,113.87z"/>
		</g>
	</g>
</g>
</svg>
