<?xml version="1.0" encoding="UTF-8"?>
<svg width="837px" height="434px" viewBox="0 0 837 434" version="1.1" xmlns="http://www.w3.org/2000/svg" xmlns:xlink="http://www.w3.org/1999/xlink">
    <title>ticket copy 2</title>
    <defs>
        <linearGradient x1="2.8648662%" y1="39.2641796%" x2="106.136215%" y2="64.7947043%" id="linearGradient-1">
            <stop stop-color="#FFE258" offset="0%"></stop>
            <stop stop-color="#C78100" offset="78.002076%"></stop>
            <stop stop-color="#FFB01F" offset="100%"></stop>
            <stop stop-color="#FFB01F" offset="100%"></stop>
        </linearGradient>
    </defs>
    <g id="Page-2" stroke="none" stroke-width="1" fill="none" fill-rule="evenodd">
        <g id="Desktop-Copy-13" transform="translate(-86.000000, -1090.000000)">
            <g id="ticket-bg" transform="translate(87.000000, 1090.000000)">
                <path d="M783,0.5 C783,25.6289561 803.371044,46 828.5,46 C831.054835,46 833.56049,45.789433 836.000557,45.3847071 L836.000557,388.615293 C833.56049,388.210567 831.054835,388 828.5,388 C803.371044,388 783,408.371044 783,433.5 L783.003393,433.999393 L45.99731,433.999943 C45.9991018,433.833508 46,433.666859 46,433.5 C46,408.371044 25.6289561,388 0.5,388 L-0.000606868035,388.003393 L-0.00127260147,45.9972957 C0.165604294,45.999097 0.332696697,46 0.5,46 C25.6289561,46 46,25.6289561 46,0.5 L45.9953931,-0.000606868036 L783.002704,-0.00127260148 C783.000903,0.165604294 783,0.332696697 783,0.5 Z" id="Combined-Shape" fill="#F3EFE3"></path>
                <path d="M783,0.5 C783,25.6289561 803.371044,46 828.5,46 C831.054835,46 833.56049,45.789433 836.000557,45.3847071 L836.000557,388.615293 C833.56049,388.210567 831.054835,388 828.5,388 C803.371044,388 783,408.371044 783,433.5 L783.003393,433.999393 L45.99731,433.999943 C45.9991018,433.833508 46,433.666859 46,433.5 C46,408.371044 25.6289561,388 0.5,388 L-0.000606868035,388.003393 L-0.00127260147,45.9972957 C0.165604294,45.999097 0.332696697,46 0.5,46 C25.6289561,46 46,25.6289561 46,0.5 L45.9953931,-0.000606868036 L783.002704,-0.00127260148 C783.000903,0.165604294 783,0.332696697 783,0.5 Z" id="Combined-Shape-Copy" fill-opacity="0.18" fill="url(#linearGradient-1)"></path>
                <path d="M835.500003,341.5 L835.499718,389.208846 C832.903573,388.743081 830.230176,388.5 827.5,388.5 C815.163089,388.5 803.985698,393.464503 795.856625,401.504731 C787.609604,409.661618 782.499953,420.984117 782.500001,433.500057 L782.500001,433.500057 L45.500495,433.500001 C45.4302143,420.925987 40.3086139,409.612667 32.0811406,401.474729 C23.9572853,393.439281 12.8054485,388.5 0.503992662,388.499984 L0.503992662,388.499984 L-0.50091286,388.508009 L-0.499990186,341.5 L835.500003,341.5 Z" id="Oval-Copy-14" stroke="#AD0B1E" fill="#AD0B1E"></path>
            </g>
        </g>
    </g>
</svg>